<svg width="45" height="45" viewBox="0 0 45 45" fill="none" xmlns="http://www.w3.org/2000/svg">
<rect width="45" height="45" rx="22.5" fill="#0d6869"/>
<path d="M26.0976 15.0587C26.1218 14.9803 26.1302 14.8978 26.1225 14.8161C26.1147 14.7344 26.091 14.655 26.0526 14.5824C26.0141 14.5099 25.9618 14.4456 25.8986 14.3933C25.8353 14.341 25.7624 14.3016 25.6839 14.2775C25.6054 14.2534 25.523 14.2449 25.4413 14.2527C25.3595 14.2604 25.2801 14.2841 25.2076 14.3226C25.135 14.361 25.0708 14.4133 25.0184 14.4766C24.9661 14.5398 24.9268 14.6128 24.9026 14.6912L19.9026 30.9412C19.8539 31.0997 19.8701 31.271 19.9477 31.4176C20.0253 31.5641 20.1579 31.6738 20.3164 31.7225C20.4749 31.7712 20.6462 31.755 20.7927 31.6774C20.9392 31.5998 21.0489 31.4672 21.0976 31.3087L26.0976 15.0587ZM19.0676 18.1825C19.1258 18.2406 19.172 18.3095 19.2035 18.3855C19.235 18.4614 19.2513 18.5428 19.2513 18.625C19.2513 18.7072 19.235 18.7886 19.2035 18.8645C19.172 18.9405 19.1258 19.0094 19.0676 19.0675L15.1339 23L19.0676 26.9325C19.185 27.0499 19.2509 27.209 19.2509 27.375C19.2509 27.541 19.185 27.7001 19.0676 27.8175C18.9503 27.9349 18.7911 28.0008 18.6251 28.0008C18.4592 28.0008 18.3 27.9349 18.1826 27.8175L13.8076 23.4425C13.7494 23.3844 13.7033 23.3155 13.6717 23.2395C13.6402 23.1636 13.624 23.0822 13.624 23C13.624 22.9178 13.6402 22.8364 13.6717 22.7605C13.7033 22.6845 13.7494 22.6156 13.8076 22.5575L18.1826 18.1825C18.2407 18.1243 18.3097 18.0781 18.3856 18.0466C18.4615 18.0151 18.5429 17.9989 18.6251 17.9989C18.7074 17.9989 18.7888 18.0151 18.8647 18.0466C18.9406 18.0781 19.0096 18.1243 19.0676 18.1825ZM26.9326 18.1825C26.8744 18.2406 26.8283 18.3095 26.7968 18.3855C26.7652 18.4614 26.749 18.5428 26.749 18.625C26.749 18.7072 26.7652 18.7886 26.7968 18.8645C26.8283 18.9405 26.8744 19.0094 26.9326 19.0675L30.8664 23L26.9326 26.9325C26.8745 26.9906 26.8284 27.0596 26.797 27.1355C26.7655 27.2114 26.7494 27.2928 26.7494 27.375C26.7494 27.4572 26.7655 27.5386 26.797 27.6145C26.8284 27.6904 26.8745 27.7594 26.9326 27.8175C26.9908 27.8756 27.0597 27.9217 27.1357 27.9531C27.2116 27.9846 27.293 28.0008 27.3751 28.0008C27.4573 28.0008 27.5387 27.9846 27.6146 27.9531C27.6905 27.9217 27.7595 27.8756 27.8176 27.8175L32.1926 23.4425C32.2508 23.3844 32.297 23.3155 32.3285 23.2395C32.36 23.1636 32.3763 23.0822 32.3763 23C32.3763 22.9178 32.36 22.8364 32.3285 22.7605C32.297 22.6845 32.2508 22.6156 32.1926 22.5575L27.8176 18.1825C27.7596 18.1243 27.6906 18.0781 27.6147 18.0466C27.5388 18.0151 27.4574 17.9989 27.3751 17.9989C27.2929 17.9989 27.2115 18.0151 27.1356 18.0466C27.0597 18.0781 26.9907 18.1243 26.9326 18.1825Z" fill="white"/>
</svg>
